<svg viewBox="0 0 192 250" xmlns="http://www.w3.org/2000/svg">
<defs>
<linearGradient id="body" x1="0" y1="0" x2="0" y2="1">
  <stop offset="0" stop-color="#ff4d3d"/><stop offset=".5" stop-color="#cf3a2e"/><stop offset="1" stop-color="#78211a"/>
</linearGradient>
<linearGradient id="gloss" x1="0" y1="0" x2="0" y2="1">
  <stop offset="0" stop-color="#fff" stop-opacity=".34"/><stop offset="1" stop-color="#fff" stop-opacity="0"/>
</linearGradient>
<linearGradient id="plate" x1="0" y1="0" x2="0" y2="1">
  <stop offset="0" stop-color="#23272d"/><stop offset="1" stop-color="#0b0d10"/>
</linearGradient>
<radialGradient id="kn" cx=".36" cy=".30" r=".85">
  <stop offset="0" stop-color="#454b54"/><stop offset=".55" stop-color="#22262c"/><stop offset="1" stop-color="#090b0e"/>
</radialGradient>
<radialGradient id="metal" cx=".38" cy=".30" r=".9">
  <stop offset="0" stop-color="#f2f5f8"/><stop offset=".5" stop-color="#aab1b8"/><stop offset="1" stop-color="#4d535a"/>
</radialGradient>
<radialGradient id="scr" cx=".35" cy=".3" r=".9">
  <stop offset="0" stop-color="#cfd5db"/><stop offset="1" stop-color="#5a6068"/>
</radialGradient>
<radialGradient id="led" cx=".4" cy=".35" r=".75">
  <stop offset="0" stop-color="#ffffff"/><stop offset=".35" stop-color="#ff9a8a"/><stop offset="1" stop-color="#78211a"/>
</radialGradient>
</defs>
<linearGradient id="goldp" x1="0" y1="0" x2="0" y2="1"><stop offset="0" stop-color="#f3dd86"/><stop offset=".5" stop-color="#c9a341"/><stop offset="1" stop-color="#8a691f"/></linearGradient>
<linearGradient id="chromep" x1="0" y1="0" x2="0" y2="1"><stop offset="0" stop-color="#eef2f5"/><stop offset=".46" stop-color="#aab1b8"/><stop offset=".54" stop-color="#cfd5da"/><stop offset="1" stop-color="#7d848b"/></linearGradient>
<pattern id="tweed" width="6" height="6" patternUnits="userSpaceOnUse"><rect width="6" height="6" fill="#c8a25b"/><path d="M0 0H6M0 3H6" stroke="#865f2c" stroke-width=".8" stroke-opacity=".55"/><path d="M0 0V6M3 0V6" stroke="#e6c98c" stroke-width=".7" stroke-opacity=".5"/><path d="M0 6 6 0" stroke="#6e4d22" stroke-width=".6" stroke-opacity=".4"/></pattern>
<pattern id="cloth" width="5" height="5" patternUnits="userSpaceOnUse"><path d="M0 0H5M0 2.5H5" stroke="#000" stroke-opacity=".22" stroke-width=".7"/><path d="M0 0V5M2.5 0V5" stroke="#000" stroke-opacity=".13" stroke-width=".7"/></pattern>
<pattern id="voxgr" width="15" height="15" patternUnits="userSpaceOnUse"><path d="M7.5 0 0 7.5 7.5 15 15 7.5Z" fill="none" stroke="#5a4a26" stroke-opacity=".55" stroke-width="1.3"/><path d="M0 0 15 15M15 0 0 15" stroke="#7c6638" stroke-opacity=".22" stroke-width=".6"/></pattern>
<pattern id="salt" width="9" height="9" patternUnits="userSpaceOnUse"><circle cx="1.5" cy="2" r=".9" fill="#dad4c4" opacity=".7"/><circle cx="6" cy="5.5" r=".9" fill="#15120d"/><circle cx="4" cy="1" r=".6" fill="#2a261d"/><circle cx="8" cy="8" r=".7" fill="#cdc6b4" opacity=".6"/><circle cx="2.5" cy="7.5" r=".7" fill="#1c180f"/></pattern>
<pattern id="sparkle" width="8" height="8" patternUnits="userSpaceOnUse"><circle cx="1.5" cy="1.5" r=".6" fill="#fff" opacity=".75"/><circle cx="5.5" cy="4" r=".5" fill="#fff" opacity=".5"/><circle cx="3.5" cy="6.5" r=".5" fill="#e6e9ec" opacity=".7"/><circle cx="7" cy="1" r=".4" fill="#fff" opacity=".6"/></pattern>
<pattern id="jute" width="7" height="7" patternUnits="userSpaceOnUse"><path d="M0 3.5H7M3.5 0V7" stroke="#000" stroke-opacity=".45" stroke-width="1.6"/><path d="M0 0H7" stroke="#4a4438" stroke-opacity=".5" stroke-width="1"/></pattern>
<pattern id="weave" width="12" height="12" patternUnits="userSpaceOnUse"><rect width="12" height="12" fill="#241d15"/><rect x="0" y="0" width="5.2" height="5.2" fill="#3e3122"/><rect x="6.2" y="6.2" width="5.2" height="5.2" fill="#3e3122"/><rect x="6.2" y="0" width="5.2" height="5.2" fill="#2c2318"/><rect x="0" y="6.2" width="5.2" height="5.2" fill="#2c2318"/></pattern>
<pattern id="dplate" width="13" height="13" patternUnits="userSpaceOnUse"><rect width="13" height="13" fill="#aab1b8"/><path d="M1 4l3-3 3 3M7.5 10.5l3-3 3 3" fill="none" stroke="#5f666d" stroke-width="1.5"/><path d="M1 5l3-3 3 3M7.5 11.5l3-3 3 3" fill="none" stroke="#eef1f4" stroke-width=".7"/></pattern>
<radialGradient id="cone" cx=".5" cy=".42" r=".58"><stop offset="0" stop-color="#3c3c40"/><stop offset=".7" stop-color="#161618"/><stop offset="1" stop-color="#040405"/></radialGradient>

<circle cx="96" cy="128" r="90" fill="#000" opacity=".32"/><circle cx="96" cy="124" r="90" fill="url(#body)" stroke="#78211a" stroke-width="2"/><circle cx="96" cy="124" r="84" fill="none" stroke="#fff" stroke-opacity=".14" stroke-width="1.5"/><ellipse cx="96" cy="86" rx="70" ry="34" fill="url(#gloss)"/><g transform="rotate(-50.0 58.0 84)"><circle cx="58.0" cy="84" r="17" fill="#05070a"/><circle cx="58.0" cy="84" r="15" fill="url(#kn)"/><circle cx="58.0" cy="84" r="15" fill="none" stroke="#000" stroke-opacity=".5" stroke-width="1.4"/><ellipse cx="53.2" cy="78.9" rx="7.5" ry="6.0" fill="#fff" opacity=".10"/><rect x="56.4" y="72.0" width="3.2" height="8.2" rx="1.6" fill="#ff9a8a"/></g><g transform="rotate(50.0 134.0 84)"><circle cx="134.0" cy="84" r="17" fill="#05070a"/><circle cx="134.0" cy="84" r="15" fill="url(#kn)"/><circle cx="134.0" cy="84" r="15" fill="none" stroke="#000" stroke-opacity=".5" stroke-width="1.4"/><ellipse cx="129.2" cy="78.9" rx="7.5" ry="6.0" fill="#fff" opacity=".10"/><rect x="132.4" y="72.0" width="3.2" height="8.2" rx="1.6" fill="#ff9a8a"/></g><circle cx="96" cy="120" r="8" fill="#ff9a8a" opacity=".22"/><circle cx="96" cy="120" r="5.5" fill="#0a0c0f"/><circle cx="96" cy="120" r="4" fill="#ff9a8a"/><circle cx="94.8" cy="118.8" r="1.4" fill="#fff" opacity=".85"/><path d="M58 150 Q96 184 134 150" fill="none" stroke="#000" stroke-opacity=".38" stroke-width="4"/><rect x="67" y="44" width="58" height="20" rx="5" fill="#0b0d10" stroke="#ff9a8a" stroke-opacity=".55"/><text x="96" y="58" text-anchor="middle" font-family="Arial,Helvetica,sans-serif" font-weight="800" font-size="12" letter-spacing=".6" fill="#ff9a8a">FUZZ</text><circle cx="96" cy="196" r="21" fill="#0a0c0f"/><circle cx="96" cy="196" r="16.5" fill="url(#metal)"/><circle cx="96" cy="196" r="16.5" fill="none" stroke="#000" stroke-opacity=".4"/><circle cx="96" cy="196" r="9" fill="url(#kn)" stroke="#000" stroke-opacity=".5"/><ellipse cx="93" cy="193" rx="4" ry="3" fill="#fff" opacity=".12"/>
</svg>