<svg viewBox="0 0 192 250" xmlns="http://www.w3.org/2000/svg">
<defs>
<linearGradient id="body" x1="0" y1="0" x2="0" y2="1">
  <stop offset="0" stop-color="#3a3d42"/><stop offset=".5" stop-color="#222428"/><stop offset="1" stop-color="#0d0e10"/>
</linearGradient>
<linearGradient id="gloss" x1="0" y1="0" x2="0" y2="1">
  <stop offset="0" stop-color="#fff" stop-opacity=".34"/><stop offset="1" stop-color="#fff" stop-opacity="0"/>
</linearGradient>
<linearGradient id="plate" x1="0" y1="0" x2="0" y2="1">
  <stop offset="0" stop-color="#23272d"/><stop offset="1" stop-color="#0b0d10"/>
</linearGradient>
<radialGradient id="kn" cx=".36" cy=".30" r=".85">
  <stop offset="0" stop-color="#454b54"/><stop offset=".55" stop-color="#22262c"/><stop offset="1" stop-color="#090b0e"/>
</radialGradient>
<radialGradient id="metal" cx=".38" cy=".30" r=".9">
  <stop offset="0" stop-color="#f2f5f8"/><stop offset=".5" stop-color="#aab1b8"/><stop offset="1" stop-color="#4d535a"/>
</radialGradient>
<radialGradient id="scr" cx=".35" cy=".3" r=".9">
  <stop offset="0" stop-color="#cfd5db"/><stop offset="1" stop-color="#5a6068"/>
</radialGradient>
<radialGradient id="led" cx=".4" cy=".35" r=".75">
  <stop offset="0" stop-color="#ffffff"/><stop offset=".35" stop-color="#e8c14a"/><stop offset="1" stop-color="#0d0e10"/>
</radialGradient>
</defs>
<linearGradient id="goldp" x1="0" y1="0" x2="0" y2="1"><stop offset="0" stop-color="#f3dd86"/><stop offset=".5" stop-color="#c9a341"/><stop offset="1" stop-color="#8a691f"/></linearGradient>
<linearGradient id="chromep" x1="0" y1="0" x2="0" y2="1"><stop offset="0" stop-color="#eef2f5"/><stop offset=".46" stop-color="#aab1b8"/><stop offset=".54" stop-color="#cfd5da"/><stop offset="1" stop-color="#7d848b"/></linearGradient>
<pattern id="tweed" width="6" height="6" patternUnits="userSpaceOnUse"><rect width="6" height="6" fill="#c8a25b"/><path d="M0 0H6M0 3H6" stroke="#865f2c" stroke-width=".8" stroke-opacity=".55"/><path d="M0 0V6M3 0V6" stroke="#e6c98c" stroke-width=".7" stroke-opacity=".5"/><path d="M0 6 6 0" stroke="#6e4d22" stroke-width=".6" stroke-opacity=".4"/></pattern>
<pattern id="cloth" width="5" height="5" patternUnits="userSpaceOnUse"><path d="M0 0H5M0 2.5H5" stroke="#000" stroke-opacity=".22" stroke-width=".7"/><path d="M0 0V5M2.5 0V5" stroke="#000" stroke-opacity=".13" stroke-width=".7"/></pattern>
<pattern id="voxgr" width="15" height="15" patternUnits="userSpaceOnUse"><path d="M7.5 0 0 7.5 7.5 15 15 7.5Z" fill="none" stroke="#5a4a26" stroke-opacity=".55" stroke-width="1.3"/><path d="M0 0 15 15M15 0 0 15" stroke="#7c6638" stroke-opacity=".22" stroke-width=".6"/></pattern>
<pattern id="salt" width="9" height="9" patternUnits="userSpaceOnUse"><circle cx="1.5" cy="2" r=".9" fill="#dad4c4" opacity=".7"/><circle cx="6" cy="5.5" r=".9" fill="#15120d"/><circle cx="4" cy="1" r=".6" fill="#2a261d"/><circle cx="8" cy="8" r=".7" fill="#cdc6b4" opacity=".6"/><circle cx="2.5" cy="7.5" r=".7" fill="#1c180f"/></pattern>
<pattern id="sparkle" width="8" height="8" patternUnits="userSpaceOnUse"><circle cx="1.5" cy="1.5" r=".6" fill="#fff" opacity=".75"/><circle cx="5.5" cy="4" r=".5" fill="#fff" opacity=".5"/><circle cx="3.5" cy="6.5" r=".5" fill="#e6e9ec" opacity=".7"/><circle cx="7" cy="1" r=".4" fill="#fff" opacity=".6"/></pattern>
<pattern id="jute" width="7" height="7" patternUnits="userSpaceOnUse"><path d="M0 3.5H7M3.5 0V7" stroke="#000" stroke-opacity=".45" stroke-width="1.6"/><path d="M0 0H7" stroke="#4a4438" stroke-opacity=".5" stroke-width="1"/></pattern>
<pattern id="weave" width="12" height="12" patternUnits="userSpaceOnUse"><rect width="12" height="12" fill="#241d15"/><rect x="0" y="0" width="5.2" height="5.2" fill="#3e3122"/><rect x="6.2" y="6.2" width="5.2" height="5.2" fill="#3e3122"/><rect x="6.2" y="0" width="5.2" height="5.2" fill="#2c2318"/><rect x="0" y="6.2" width="5.2" height="5.2" fill="#2c2318"/></pattern>
<pattern id="dplate" width="13" height="13" patternUnits="userSpaceOnUse"><rect width="13" height="13" fill="#aab1b8"/><path d="M1 4l3-3 3 3M7.5 10.5l3-3 3 3" fill="none" stroke="#5f666d" stroke-width="1.5"/><path d="M1 5l3-3 3 3M7.5 11.5l3-3 3 3" fill="none" stroke="#eef1f4" stroke-width=".7"/></pattern>

<rect x="17" y="103" width="164" height="144" rx="12" fill="#000" opacity=".3"/><rect x="14" y="98" width="164" height="144" rx="12" fill="url(#body)" stroke="#000" stroke-opacity=".5" stroke-width="1.5"/><rect x="15.5" y="99.5" width="161" height="141" rx="11" fill="none" stroke="#fff" stroke-opacity=".12"/><rect x="18" y="102" width="156" height="136" rx="9" fill="none" stroke="#efe6cf" stroke-opacity=".85" stroke-width="2"/><rect x="26" y="108" width="140" height="124" rx="8" fill="#7d776b"/><rect x="26" y="108" width="140" height="124" rx="8" fill="url(#cloth)"/><rect x="26" y="108" width="140" height="124" rx="8" fill="url(#salt)"/><circle cx="62" cy="138" r="30" fill="none" stroke="#fff" stroke-opacity=".08" stroke-width="3"/><circle cx="62" cy="138" r="30" fill="none" stroke="#000" stroke-opacity=".3" stroke-width="2"/><circle cx="62" cy="138" r="12.6" fill="#000" opacity=".16"/><circle cx="62" cy="138" r="4.8" fill="#fff" opacity=".06"/><circle cx="130" cy="138" r="30" fill="none" stroke="#fff" stroke-opacity=".08" stroke-width="3"/><circle cx="130" cy="138" r="30" fill="none" stroke="#000" stroke-opacity=".3" stroke-width="2"/><circle cx="130" cy="138" r="12.6" fill="#000" opacity=".16"/><circle cx="130" cy="138" r="4.8" fill="#fff" opacity=".06"/><circle cx="62" cy="202" r="30" fill="none" stroke="#fff" stroke-opacity=".08" stroke-width="3"/><circle cx="62" cy="202" r="30" fill="none" stroke="#000" stroke-opacity=".3" stroke-width="2"/><circle cx="62" cy="202" r="12.6" fill="#000" opacity=".16"/><circle cx="62" cy="202" r="4.8" fill="#fff" opacity=".06"/><circle cx="130" cy="202" r="30" fill="none" stroke="#fff" stroke-opacity=".08" stroke-width="3"/><circle cx="130" cy="202" r="30" fill="none" stroke="#000" stroke-opacity=".3" stroke-width="2"/><circle cx="130" cy="202" r="12.6" fill="#000" opacity=".16"/><circle cx="130" cy="202" r="4.8" fill="#fff" opacity=".06"/><rect x="26" y="108" width="140" height="124" rx="8" fill="none" stroke="#000" stroke-opacity=".55" stroke-width="2"/><rect x="28.5" y="110.5" width="135" height="119" rx="6" fill="none" stroke="#efe6cf" stroke-opacity=".9" stroke-width="2.4"/><rect x="25" y="13" width="148" height="80" rx="10" fill="#000" opacity=".3"/><rect x="22" y="8" width="148" height="80" rx="10" fill="url(#body)" stroke="#000" stroke-opacity=".5" stroke-width="1.5"/><rect x="23.5" y="9.5" width="145" height="77" rx="9" fill="none" stroke="#fff" stroke-opacity=".12"/><rect x="26" y="12" width="140" height="72" rx="7" fill="none" stroke="#efe6cf" stroke-opacity=".85" stroke-width="2"/><rect x="28" y="12" width="136" height="32" rx="8" fill="url(#gloss)"/><circle cx="32" cy="16" r="5" fill="#0a0c0f"/><circle cx="32" cy="16" r="3.3" fill="url(#scr)"/><rect x="29" y="15.3" width="6" height="1.4" rx=".7" fill="#000" opacity=".55" transform="rotate(35 32 16)"/><circle cx="160" cy="16" r="5" fill="#0a0c0f"/><circle cx="160" cy="16" r="3.3" fill="url(#scr)"/><rect x="157" y="15.3" width="6" height="1.4" rx=".7" fill="#000" opacity=".55" transform="rotate(35 160 16)"/><rect x="57" y="14" width="78" height="20" rx="5" fill="#2a2410" stroke="#e8c14a" stroke-opacity=".55"/><text x="96" y="28" text-anchor="middle" font-family="Arial,Helvetica,sans-serif" font-weight="800" font-size="12" letter-spacing=".6" fill="#e8c14a">JTM 45</text><rect x="30" y="42" width="132" height="36" rx="5" fill="url(#goldp)" stroke="#000" stroke-opacity=".5"/><rect x="31.5" y="43.5" width="129" height="33" rx="4" fill="none" stroke="#fff" stroke-opacity=".14"/><g transform="rotate(-50.0 44.0 60)"><circle cx="44.0" cy="60" r="10" fill="#05070a"/><circle cx="44.0" cy="60" r="8" fill="url(#kn)"/><circle cx="44.0" cy="60" r="8" fill="none" stroke="#000" stroke-opacity=".5" stroke-width="1.4"/><ellipse cx="41.4" cy="57.3" rx="4.0" ry="3.2" fill="#fff" opacity=".10"/><rect x="42.4" y="55.0" width="3.2" height="4.4" rx="1.6" fill="#e8c14a"/></g><g transform="rotate(-16.66666666666667 79.33333333333333 60)"><circle cx="79.33333333333333" cy="60" r="10" fill="#05070a"/><circle cx="79.33333333333333" cy="60" r="8" fill="url(#kn)"/><circle cx="79.33333333333333" cy="60" r="8" fill="none" stroke="#000" stroke-opacity=".5" stroke-width="1.4"/><ellipse cx="76.8" cy="57.3" rx="4.0" ry="3.2" fill="#fff" opacity=".10"/><rect x="77.7" y="55.0" width="3.2" height="4.4" rx="1.6" fill="#e8c14a"/></g><g transform="rotate(16.666666666666657 114.66666666666666 60)"><circle cx="114.66666666666666" cy="60" r="10" fill="#05070a"/><circle cx="114.66666666666666" cy="60" r="8" fill="url(#kn)"/><circle cx="114.66666666666666" cy="60" r="8" fill="none" stroke="#000" stroke-opacity=".5" stroke-width="1.4"/><ellipse cx="112.1" cy="57.3" rx="4.0" ry="3.2" fill="#fff" opacity=".10"/><rect x="113.1" y="55.0" width="3.2" height="4.4" rx="1.6" fill="#e8c14a"/></g><g transform="rotate(50.0 150.0 60)"><circle cx="150.0" cy="60" r="10" fill="#05070a"/><circle cx="150.0" cy="60" r="8" fill="url(#kn)"/><circle cx="150.0" cy="60" r="8" fill="none" stroke="#000" stroke-opacity=".5" stroke-width="1.4"/><ellipse cx="147.4" cy="57.3" rx="4.0" ry="3.2" fill="#fff" opacity=".10"/><rect x="148.4" y="55.0" width="3.2" height="4.4" rx="1.6" fill="#e8c14a"/></g><circle cx="150" cy="60" r="8" fill="#e8c14a" opacity=".22"/><circle cx="150" cy="60" r="5.5" fill="#0a0c0f"/><circle cx="150" cy="60" r="4" fill="#e8c14a"/><circle cx="148.8" cy="58.8" r="1.4" fill="#fff" opacity=".85"/>
</svg>