<svg viewBox="0 0 192 250" xmlns="http://www.w3.org/2000/svg">
<defs>
<linearGradient id="body" x1="0" y1="0" x2="0" y2="1">
  <stop offset="0" stop-color="#5fd6ef"/><stop offset=".5" stop-color="#27acc7"/><stop offset="1" stop-color="#147589"/>
</linearGradient>
<linearGradient id="gloss" x1="0" y1="0" x2="0" y2="1">
  <stop offset="0" stop-color="#fff" stop-opacity=".34"/><stop offset="1" stop-color="#fff" stop-opacity="0"/>
</linearGradient>
<linearGradient id="plate" x1="0" y1="0" x2="0" y2="1">
  <stop offset="0" stop-color="#23272d"/><stop offset="1" stop-color="#0b0d10"/>
</linearGradient>
<radialGradient id="kn" cx=".36" cy=".30" r=".85">
  <stop offset="0" stop-color="#454b54"/><stop offset=".55" stop-color="#22262c"/><stop offset="1" stop-color="#090b0e"/>
</radialGradient>
<radialGradient id="metal" cx=".38" cy=".30" r=".9">
  <stop offset="0" stop-color="#f2f5f8"/><stop offset=".5" stop-color="#aab1b8"/><stop offset="1" stop-color="#4d535a"/>
</radialGradient>
<radialGradient id="scr" cx=".35" cy=".3" r=".9">
  <stop offset="0" stop-color="#cfd5db"/><stop offset="1" stop-color="#5a6068"/>
</radialGradient>
<radialGradient id="led" cx=".4" cy=".35" r=".75">
  <stop offset="0" stop-color="#ffffff"/><stop offset=".35" stop-color="#7ee4f7"/><stop offset="1" stop-color="#147589"/>
</radialGradient>
</defs>
<rect x="17" y="11" width="158" height="235" rx="20" fill="#000" opacity=".35"/>
<rect x="14" y="6" width="164" height="236" rx="20" fill="url(#body)" stroke="#147589" stroke-width="1.5"/>
<rect x="16.5" y="8.5" width="159" height="231" rx="18" fill="none" stroke="#fff" stroke-opacity=".18" stroke-width="1.4"/>
<rect x="22" y="13" width="148" height="120" rx="14" fill="url(#gloss)"/>
<circle cx="28" cy="24" r="5" fill="#0a0c0f"/><circle cx="28" cy="24" r="3.3" fill="url(#scr)"/><rect x="25" y="23.3" width="6" height="1.4" rx=".7" fill="#000" opacity=".55" transform="rotate(35 28 24)"/><circle cx="164" cy="24" r="5" fill="#0a0c0f"/><circle cx="164" cy="24" r="3.3" fill="url(#scr)"/><rect x="161" y="23.3" width="6" height="1.4" rx=".7" fill="#000" opacity=".55" transform="rotate(35 164 24)"/><circle cx="28" cy="224" r="5" fill="#0a0c0f"/><circle cx="28" cy="224" r="3.3" fill="url(#scr)"/><rect x="25" y="223.3" width="6" height="1.4" rx=".7" fill="#000" opacity=".55" transform="rotate(35 28 224)"/><circle cx="164" cy="224" r="5" fill="#0a0c0f"/><circle cx="164" cy="224" r="3.3" fill="url(#scr)"/><rect x="161" y="223.3" width="6" height="1.4" rx=".7" fill="#000" opacity=".55" transform="rotate(35 164 224)"/>
<circle cx="96" cy="38" r="11" fill="#7ee4f7" opacity=".18"/><circle cx="96" cy="38" r="8" fill="#05070a"/><circle cx="96" cy="38" r="5.5" fill="url(#led)"/><circle cx="94" cy="36" r="1.7" fill="#fff" opacity=".75"/><g transform="rotate(-40 58 76)"><circle cx="58" cy="76" r="24" fill="#05070a"/><circle cx="58" cy="76" r="22" fill="url(#kn)"/><circle cx="58" cy="76" r="22" fill="none" stroke="#000" stroke-opacity=".5" stroke-width="1.4"/><ellipse cx="51.0" cy="68.5" rx="11.0" ry="8.8" fill="#fff" opacity=".10"/><rect x="56.4" y="57.0" width="3.2" height="12.1" rx="1.6" fill="#7ee4f7"/></g><g transform="rotate(30 134 76)"><circle cx="134" cy="76" r="24" fill="#05070a"/><circle cx="134" cy="76" r="22" fill="url(#kn)"/><circle cx="134" cy="76" r="22" fill="none" stroke="#000" stroke-opacity=".5" stroke-width="1.4"/><ellipse cx="127.0" cy="68.5" rx="11.0" ry="8.8" fill="#fff" opacity=".10"/><rect x="132.4" y="57.0" width="3.2" height="12.1" rx="1.6" fill="#7ee4f7"/></g><g transform="rotate(10 96 120)"><circle cx="96" cy="120" r="24" fill="#05070a"/><circle cx="96" cy="120" r="22" fill="url(#kn)"/><circle cx="96" cy="120" r="22" fill="none" stroke="#000" stroke-opacity=".5" stroke-width="1.4"/><ellipse cx="89.0" cy="112.5" rx="11.0" ry="8.8" fill="#fff" opacity=".10"/><rect x="94.4" y="101.0" width="3.2" height="12.1" rx="1.6" fill="#7ee4f7"/></g>
<rect x="36" y="150" width="120" height="46" rx="9" fill="url(#plate)" stroke="#000" stroke-opacity=".6"/><rect x="36.8" y="150.8" width="118.4" height="44.4" rx="8.2" fill="none" stroke="#fff" stroke-opacity=".07"/><text x="96" y="182" text-anchor="middle" font-family="Arial,Helvetica,sans-serif" font-weight="800" font-size="25" letter-spacing="1.5" fill="#f4f6f8">MOD</text><rect x="74" y="189" width="44" height="3" rx="1.5" fill="#7ee4f7"/>
<circle cx="96" cy="219" r="21" fill="#0a0c0f"/><circle cx="96" cy="219" r="16.5" fill="url(#metal)"/><circle cx="96" cy="219" r="16.5" fill="none" stroke="#000" stroke-opacity=".4"/><circle cx="96" cy="219" r="9" fill="url(#kn)" stroke="#000" stroke-opacity=".5"/><ellipse cx="93" cy="216" rx="4" ry="3" fill="#fff" opacity=".12"/>
</svg>